<svg width="42" height="42" viewBox="0 0 42 42" fill="none" xmlns="http://www.w3.org/2000/svg">
<path d="M10.5 33.25V17.5C10.5 14.7152 11.6062 12.0445 13.5754 10.0754C15.5445 8.10625 18.2152 7 21 7C23.7848 7 26.4555 8.10625 28.4246 10.0754C30.3938 12.0445 31.5 14.7152 31.5 17.5V33.25M10.5 33.25H31.5M10.5 33.25H7M31.5 33.25H35M19.25 38.5H22.75" stroke="#111111" stroke-linecap="round" stroke-linejoin="round"/>
<path d="M21 7C21.9665 7 22.75 6.2165 22.75 5.25C22.75 4.2835 21.9665 3.5 21 3.5C20.0335 3.5 19.25 4.2835 19.25 5.25C19.25 6.2165 20.0335 7 21 7Z" stroke="#111111"/>
</svg>
